<?xml version="1.0" encoding="iso-8859-1"?>
<!-- Generator: Adobe Illustrator 19.0.0, SVG Export Plug-In . SVG Version: 6.00 Build 0)  -->
<svg version="1.1" id="Capa_1" xmlns="http://www.w3.org/2000/svg" xmlns:xlink="http://www.w3.org/1999/xlink" x="0px" y="0px"
	 viewBox="0 0 512 512" style="enable-background:new 0 0 512 512;" xml:space="preserve">
<g>
	<g>
		<path d="M0,0v512h512V0H0z M482,482H30V30h452V482z"/>
	</g>
</g>
<g>
	<g>
		<path d="M60,60v392h392V60H60z M411.217,277.213L277.213,411.217c-11.716,11.716-30.711,11.716-42.426,0L100.783,277.213
			c-11.716-11.716-11.716-30.711,0-42.427l134.004-134.004c11.716-11.716,30.711-11.716,42.426,0l134.004,134.004
			C422.933,246.502,422.933,265.498,411.217,277.213z"/>
	</g>
</g>
<g>
	<g>
		<path d="M310.459,259.76c-3.095-0.745-16.48-2.927-16.48-10.56c0-6.117,5.021-9.44,12.8-9.44c10.554,0,20.053,6.08,24.32,9.28
			l8.64-12.96c-4.587-4.052-14.406-11.52-32.8-11.52c-17.523,0-32.96,9.94-32.96,27.68c0,18.427,24.48,21.867,29.92,23.36
			c6.505,1.815,18.4,4.15,18.4,11.36c0,5.873-5.633,9.28-13.76,9.28c-12.539,0-24.32-7.413-29.44-11.04l-8,13.44
			c4.8,4.16,18.567,12.96,37.92,12.96c10.453,0,33.92-3.267,33.92-26.56C342.939,265.333,316.219,261.255,310.459,259.76z"/>
	</g>
</g>
<g>
	<g>
		<path d="M227.901,196.4h-48.16V310h22.08v-38.08h26.88c19.687,0,35.36-17.142,35.36-37.76
			C264.061,216.667,249.944,196.4,227.901,196.4z M227.421,252.56h-25.6v-36.8h24.64c9.372,0,15.2,8.8,15.2,18.4
			C241.661,245.333,235.166,252.56,227.421,252.56z"/>
	</g>
</g>
<g>
</g>
<g>
</g>
<g>
</g>
<g>
</g>
<g>
</g>
<g>
</g>
<g>
</g>
<g>
</g>
<g>
</g>
<g>
</g>
<g>
</g>
<g>
</g>
<g>
</g>
<g>
</g>
<g>
</g>
</svg>
